<?xml version="1.0"?>
<svg xmlns="http://www.w3.org/2000/svg" xmlns:xlink="http://www.w3.org/1999/xlink" xmlns:svgjs="http://svgjs.com/svgjs" version="1.1" width="512" height="512" x="0" y="0" viewBox="0 0 24 24" style="enable-background:new 0 0 512 512" xml:space="preserve" class=""><g><path xmlns="http://www.w3.org/2000/svg" d="m23.25.05h-22.5c-.098 0-.195.02-.287.058-.183.076-.329.222-.405.405-.038.092-.058.189-.058.287v22.5c0 .414.336.75.75.75s.75-.336.75-.75v-.059c0-5.531 3.863-10.258 9.233-11.396l3.182 3.181c.147.146.338.22.53.22s.384-.073.53-.22c.293-.293.293-.768 0-1.061l-3.128-3.128c1.105-5.398 5.844-9.287 11.403-9.287.414 0 .75-.336.75-.75s-.336-.75-.75-.75z" fill="#7f8c8e" data-original="#cfd8dc" style="" class=""/><g xmlns="http://www.w3.org/2000/svg" fill="#eceff1"><path d="m1.5 2.61 3.749 3.749c-1.333.387-2.599.983-3.749 1.771z" fill="#acb4b4" data-original="#eceff1" style="" class=""/><path d="m6.315 5.305-3.754-3.755h5.419c-.752 1.156-1.308 2.423-1.665 3.755z" fill="#acb4b4" data-original="#eceff1" style="" class=""/><path d="m1.5 17.153v-7.131c1.453-1.204 3.163-2.032 4.994-2.418l3.001 3.001c-3.516 1.015-6.364 3.423-7.995 6.548z" fill="#acb4b4" data-original="#eceff1" style="" class=""/><path d="m10.603 9.592-3.039-3.038c.343-1.825 1.118-3.539 2.264-5.004h7.329c-3.14 1.638-5.556 4.504-6.554 8.042z" fill="#acb4b4" data-original="#eceff1" style="" class=""/></g><path xmlns="http://www.w3.org/2000/svg" d="m1.5 17.153v-7.131c1.453-1.204 3.163-2.032 4.994-2.418l3.001 3.001c-3.516 1.015-6.364 3.423-7.995 6.548zm0-9.023v-5.52l3.749 3.749c-1.333.387-2.599.983-3.749 1.771zm-1.215-7.917c-.099.079-.178.182-.227.3-.038.092-.058.189-.058.287v22.5c0 .414.336.75.75.75s.75-.336.75-.75v-.059c0-5.531 3.863-10.258 9.233-11.396l3.182 3.181c.147.146.338.22.53.22s.384-.073.53-.22c.021-.021.04-.042.058-.065z" fill="#6c797a" data-original="#b4bcc0" style="" class=""/><path xmlns="http://www.w3.org/2000/svg" d="m1.5 2.61v5.52c1.15-.788 2.416-1.384 3.749-1.771z" fill="#acb4b4" data-original="#cdd0d2" style="" class=""/><path xmlns="http://www.w3.org/2000/svg" d="m6.494 7.604c-1.831.386-3.541 1.214-4.994 2.418v7.131c1.631-3.125 4.479-5.534 7.995-6.548z" fill="#acb4b4" data-original="#cdd0d2" style="" class=""/></g></svg>
